<mxfile host="app.diagrams.net" modified="2024-04-16T19:21:18.834Z" agent="Mozilla/5.0 (Windows NT 10.0; Win64; x64) AppleWebKit/537.36 (KHTML, like Gecko) Chrome/122.0.0.0 Safari/537.36" version="24.2.5" etag="OJ3m3lKtEzmKkheb_Wl8" type="github">
  <diagram name="PÃ¡gina-1" id="zMe-Hs552x53L5_4NKIX">
    <mxGraphModel>
      <root>
        <mxCell id="0" />
        <mxCell id="1" parent="0" />
      </root>
    </mxGraphModel>
  </diagram>
</mxfile>
